<?xml version="1.0" encoding="UTF-8" standalone="no"?>
<!-- Created with Inkscape (http://www.inkscape.org/) -->

<svg
   width="189"
   height="46"
   viewBox="0 0 50.00625 12.170834"
   version="1.1"
   id="svg1"
   xmlns="http://www.w3.org/2000/svg"
   xmlns:svg="http://www.w3.org/2000/svg">
  <defs
     id="defs1" />
  <g
     id="layer1"
     transform="translate(-92.758094,-83.915808)">
    <path
       id="path1"
       style="fill:#1b1b1b;fill-opacity:1;stroke-width:0.349374"
       d="m 99.282312,83.915808 c -3.480548,8.8e-5 -6.302018,2.671404 -6.301941,5.966561 0.0036,0.826751 0.188598,1.642746 0.542095,2.396553 0.06545,0.139568 0.08332,0.367786 0.03249,0.513332 l -0.342036,0.979283 -0.439681,1.259018 a 0.2707591,0.2707591 49.253857 0 0 0.306089,0.355283 l 1.309748,-0.248493 1.029072,-0.19543 c 0.223647,-0.04247 0.561005,0.02203 0.761507,0.129749 0.943961,0.507139 2.012584,0.776013 3.102662,0.777266 3.480748,1.82e-4 6.302538,-2.671213 6.302458,-5.966561 8e-5,-3.295348 -2.82171,-5.966743 -6.302458,-5.966561 z"
       transform="translate(0.06624012,0.11885567)" />
    <text
       xml:space="preserve"
       style="font-size:12.7px;fill:#000000;stroke-width:0.264583"
       x="94.787849"
       y="94.546783"
       id="text1"><tspan
         id="tspan1"
         style="font-style:normal;font-variant:normal;font-weight:bold;font-stretch:normal;font-size:12.7px;font-family:Arial;-inkscape-font-specification:'Arial Bold';fill:#ffffff;fill-opacity:1;stroke-width:0.264583"
         x="94.787849"
         y="94.546783"><tspan
           style="letter-spacing:1.5875px"
           id="tspan3">C</tspan><tspan
           style="fill:#1b1b1b;fill-opacity:1"
           id="tspan2"><tspan
   style="letter-spacing:-0.529167px"
   id="tspan4">o</tspan>nt<tspan
   style="letter-spacing:-0.264583px"
   id="tspan5">a</tspan>ct</tspan></tspan></text>
  </g>
</svg>
